# xmcd
# Copyright (C) 1995-1998 Ti Kan
#
# Track frame offsets:
#       150
#       16717
#       33273
#       51097
#       62709
#       80714
#       92997
#       102692
#       116816
#       135518
#       150002
#       152910
#       168086
#       182053
#       191499
#       215071
#       236539
#
# Disc length: 3899 seconds
#
# Revision: 0
# Processed by: cddbd v1.5.2PL0 Copyright (c) Steve Scherf et al.
# Submitted via: CD-Import v1.0
#
DISCID=dd0f3911
DTITLE=Albert Vilaine and Cie - Têtes De Noeud...
DYEAR=07
DGENRE=
TTITLE0=Complainte D'un G.i.
TTITLE1=Tête De Noeud
TTITLE2=Un Bel Effet 
TTITLE3=Fait Exprès
TTITLE4=Le Modernum
TTITLE5=Et Je T'aime, Bordel!
TTITLE6=Sarqone
TTITLE7=Maman
TTITLE8=La Drague
TTITLE9=Brin D'envie
TTITLE10=Jazz Néfaste
TTITLE11=Chez Jacques
TTITLE12=Je Veux Me Pacser
TTITLE13=Mama Rilyn
TTITLE14=C'est Comme Ça
TTITLE15=Conjugale Harmonie
TTITLE16=Annita
EXTD=
EXTT0=
EXTT1=
EXTT2=
EXTT3=
EXTT4=
EXTT5=
EXTT6=
EXTT7=
EXTT8=
EXTT9=
EXTT10=
EXTT11=
EXTT12=
EXTT13=
EXTT14=
EXTT15=
EXTT16=
PLAYORDER=
